<svg xmlns="http://www.w3.org/2000/svg" xmlns:xlink="http://www.w3.org/1999/xlink" width="40" zoomAndPan="magnify" viewBox="0 0 30 30.000001" height="40" preserveAspectRatio="xMidYMid meet" version="1.0"><defs><clipPath id="062da68bfb"><path d="M 12 9 L 18 9 L 18 15.9375 L 12 15.9375 Z M 12 9 " clip-rule="nonzero"/></clipPath></defs><g clip-path="url(#062da68bfb)"><path fill="#313234" d="M 15.074219 10.496094 C 14.847656 10.496094 14.628906 10.5625 14.441406 10.6875 C 14.257812 10.8125 14.109375 10.988281 14.023438 11.195312 C 13.9375 11.402344 13.917969 11.628906 13.960938 11.851562 C 14.003906 12.070312 14.113281 12.273438 14.269531 12.429688 C 14.429688 12.589844 14.632812 12.699219 14.851562 12.742188 C 15.070312 12.785156 15.300781 12.761719 15.507812 12.675781 C 15.714844 12.589844 15.890625 12.445312 16.015625 12.257812 C 16.140625 12.074219 16.207031 11.855469 16.207031 11.628906 C 16.207031 11.328125 16.085938 11.039062 15.875 10.828125 C 15.660156 10.613281 15.375 10.496094 15.074219 10.496094 Z M 15.074219 12.308594 C 14.9375 12.308594 14.804688 12.269531 14.695312 12.195312 C 14.582031 12.121094 14.496094 12.015625 14.445312 11.890625 C 14.390625 11.765625 14.378906 11.628906 14.40625 11.496094 C 14.429688 11.363281 14.496094 11.242188 14.589844 11.148438 C 14.6875 11.054688 14.808594 10.988281 14.941406 10.960938 C 15.070312 10.9375 15.207031 10.949219 15.332031 11 C 15.457031 11.050781 15.5625 11.140625 15.636719 11.25 C 15.714844 11.363281 15.753906 11.496094 15.753906 11.628906 C 15.753906 11.808594 15.679688 11.984375 15.554688 12.109375 C 15.425781 12.238281 15.253906 12.308594 15.074219 12.308594 Z M 15.074219 9.132812 C 14.410156 9.136719 13.777344 9.398438 13.308594 9.867188 C 12.839844 10.332031 12.578125 10.96875 12.578125 11.628906 C 12.578125 12.519531 12.988281 13.464844 13.769531 14.359375 C 14.117188 14.761719 14.511719 15.125 14.945312 15.445312 C 14.980469 15.46875 15.027344 15.484375 15.074219 15.484375 C 15.121094 15.484375 15.164062 15.46875 15.203125 15.445312 C 15.632812 15.125 16.027344 14.761719 16.375 14.359375 C 17.15625 13.464844 17.566406 12.519531 17.566406 11.628906 C 17.566406 10.96875 17.304688 10.332031 16.835938 9.867188 C 16.367188 9.398438 15.734375 9.136719 15.074219 9.132812 Z M 15.074219 14.976562 C 14.605469 14.605469 13.03125 13.253906 13.03125 11.628906 C 13.03125 11.085938 13.246094 10.570312 13.628906 10.1875 C 14.011719 9.804688 14.53125 9.589844 15.074219 9.589844 C 15.613281 9.589844 16.132812 9.804688 16.515625 10.1875 C 16.898438 10.570312 17.113281 11.085938 17.113281 11.628906 C 17.113281 13.25 15.542969 14.605469 15.074219 14.976562 Z M 15.074219 14.976562 " fill-opacity="1" fill-rule="nonzero"/></g></svg>